<svg xmlns="http://www.w3.org/2000/svg">
    <title id="highQualityCarsIcon">High quality cars icon</title>
    <g fill="none" fill-rule="evenodd">
        <g fill="#18222E" transform="translate(0 1)">
            <path fill-rule="nonzero"
                d="M15.586.492c1.173 0 2.227.702 2.666 1.737l.043.108 1.7 3.79c.163.364 0 .791-.363.955-.343.153-.742.018-.924-.301l-.031-.063-1.718-3.83c-.204-.544-.707-.913-1.281-.948l-.092-.003h-8.63c-.581 0-1.104.34-1.353.902l-.037.09-1.7 3.787c-.163.364-.59.527-.954.364-.343-.154-.507-.542-.39-.89l.026-.065L4.23 2.38C4.642 1.28 5.672.54 6.835.495l.121-.003h8.63zM1.798 11.958c.375 0 .684.286.719.653l.003.07v1.651c0 .406.33.735.735.735.383 0 .698-.293.732-.668l.003-.067v-1.458c0-.398.324-.722.723-.722.375 0 .684.287.719.653l.003.07v1.457c0 1.204-.976 2.18-2.18 2.18-1.17 0-2.124-.921-2.177-2.077l-.003-.103V12.68c0-.399.324-.722.723-.722z">
            </path>
            <circle cx="4.535" cy="9.833" r="1.204"></circle>
            <path fill-rule="nonzero"
                d="M18.556 5.593c1.3 0 2.503.693 3.153 1.82.2.345.08.786-.265.986-.345.2-.787.081-.987-.265-.373-.646-1.048-1.056-1.789-1.093l-.111-.003H3.982c-1.176 0-2.136.927-2.19 2.09l-.003.103v2.186c0 .383.294.698.668.732l.067.003h5.83c.4 0 .723.324.723.722 0 .376-.287.685-.653.72l-.07.003h-5.83c-1.17 0-2.124-.921-2.177-2.077l-.003-.103V9.231c0-1.97 1.566-3.574 3.52-3.636l.118-.002h14.574z">
            </path>
            <path fill-rule="nonzero"
                d="M17.101 9.237c-3.619 0-6.552 2.934-6.552 6.552 0 3.62 2.933 6.553 6.552 6.553 3.619 0 6.553-2.934 6.553-6.553 0-3.618-2.934-6.552-6.553-6.552zm0 1.445c2.821 0 5.108 2.287 5.108 5.107 0 2.821-2.287 5.108-5.108 5.108-2.82 0-5.107-2.287-5.107-5.108 0-2.82 2.286-5.107 5.107-5.107z">
            </path>
            <path fill-rule="nonzero"
                d="M19.121 13.66c.24-.319.693-.383 1.012-.144.3.225.375.64.183.954l-.039.057-2.823 3.765c-.253.336-.639.546-1.058.576-.387.027-.768-.101-1.058-.355l-.071-.066-1.457-1.458c-.283-.282-.283-.74 0-1.021.264-.265.683-.281.966-.05l.055.05 1.457 1.457.006.002.005-.002 2.822-3.764z">
            </path>
        </g>
    </g>
</svg>