<svg xmlns="http://www.w3.org/2000/svg">
    <title id="guaranteedIcon">Guaranteed icon</title>
    <g fill="none" fill-rule="evenodd">
        <g fill="#18222E" fill-rule="nonzero">
            <path
                d="M17.32 4.93c.281-.282.739-.282 1.02 0 .265.265.282.684.05.967l-.05.055-5.314 5.315c-.272.272-.641.425-1.026.425-.353 0-.693-.128-.956-.36l-.07-.065-1.671-1.671c-.282-.282-.282-.74 0-1.022.264-.264.683-.28.967-.05l.055.05 1.673 1.673.006-.002L17.32 4.93zM4.364 12.662c.253-.309.708-.354 1.017-.102.29.237.347.652.145.957l-.044.06-3.093 3.78 2.465.493c.231.047.424.202.518.415l.026.065.974 2.925 3.064-4.862c.2-.317.607-.426.935-.26l.061.034c.318.2.426.608.26.936l-.034.06-3.877 6.153c-.313.497-1.046.428-1.273-.094l-.023-.062-1.326-3.975-3.232-.647c-.513-.102-.744-.694-.456-1.114l.039-.052 3.854-4.71zM18.62 12.56c.289-.237.707-.211.966.047l.05.055 3.854 4.71c.332.405.134 1.009-.355 1.151l-.062.015-3.233.647-1.325 3.975c-.185.557-.914.665-1.258.211l-.038-.055-3.877-6.152c-.213-.338-.112-.784.226-.997.318-.2.731-.122.956.17l.04.056 3.063 4.862.975-2.925c.075-.223.253-.395.476-.463l.068-.017 2.464-.493-3.092-3.78c-.237-.29-.212-.708.046-.967l.055-.05z">
            </path>
            <path
                d="M11.09.667c.506-.407 1.217-.426 1.743-.058l.077.058 1.795 1.442c.31.25.36.705.11 1.016-.234.291-.648.353-.955.154l-.06-.044-1.795-1.442L12 1.791l-.005.002L10.2 3.235c-.118.095-.263.15-.414.158H9.71l-2.3-.119-.004.001-.002.004L6.8 5.504c-.04.146-.124.276-.24.37L6.5 5.92 4.568 7.184l-.002.003.002.009.82 2.154c.054.142.061.297.023.442l-.023.072-.82 2.151v.004l.002.003 1.93 1.263c.127.084.224.204.278.344l.023.072.603 2.225.002.004h.004l2.302-.114c.152-.007.301.033.428.115l.061.045 1.794 1.447.005.002.004-.001 1.795-1.446c.118-.095.263-.15.414-.159h.075l2.302.115.004-.001.605-2.229c.04-.146.124-.276.24-.371l.061-.045 1.93-1.263.003-.003v-.005l-.82-2.153c-.143-.373.044-.79.417-.932.351-.134.742.024.905.354l.028.064.82 2.152c.233.61.029 1.297-.489 1.681l-.073.051-1.7 1.112-.53 1.96c-.17.63-.739 1.065-1.384 1.072l-.089-.001-2.027-.101-1.58 1.274c-.507.406-1.218.426-1.745.057l-.077-.058-1.58-1.276-2.027.1c-.652.033-1.241-.373-1.447-.985l-.026-.084-.53-1.96-1.7-1.112c-.547-.358-.784-1.033-.59-1.649l.028-.083.722-1.894-.72-1.892c-.238-.612-.034-1.304.487-1.69l.073-.05 1.7-1.113.53-1.96c.17-.63.739-1.065 1.386-1.072l.088.002 2.027.105L11.09.667z">
            </path>
        </g>
    </g>
</svg>