<svg xmlns="http://www.w3.org/2000/svg">
    <title id="carTuningIcon">Car tuning icon</title>
    <g fill="none" fill-rule="evenodd">
        <g>
            <path fill="#18222E" fill-rule="nonzero"
                d="M14.09 5.02c-1.523 1.325-2.16 3.345-1.686 5.25l.026.099-8.335 8c-1.12 1.076-1.12 2.833 0 3.908l.097.088c1.108.97 2.815.94 3.886-.09l8.354-8.023.008.002c2.047.524 4.246-.117 5.649-1.688 1.518-1.701 1.783-4.135.661-6.105l-.039-.06c-.26-.371-.797-.43-1.132-.11l-2.564 2.461h-.91V7.94l2.55-2.448c.37-.354.283-.967-.17-1.205-2.026-1.063-4.521-.813-6.277.632l-.119.1zm4.563.195l.102.022-1.919 1.843c-.147.141-.23.337-.23.54v1.883c0 .414.335.75.75.75h1.96l.072-.004c.168-.016.325-.088.447-.205l1.99-1.908c.303 1.188.004 2.468-.855 3.43-1.102 1.235-2.894 1.689-4.496 1.133-.266-.092-.562-.027-.765.168l-8.67 8.327c-.523.502-1.382.502-1.905 0-.505-.485-.506-1.258 0-1.743l8.672-8.323c.217-.208.289-.525.183-.806-.567-1.508-.104-3.195 1.172-4.245.976-.803 2.272-1.104 3.492-.862z"
                transform="scale(-1 1) rotate(-45 3.243 57.895) rotate(46 13.347 13.352)"></path>
        </g>
        <g>
            <g fill="#18222E" transform="translate(0 1)">
                <path fill-rule="nonzero"
                    d="M15.586.492c1.173 0 2.227.702 2.666 1.737l.043.108 1.7 3.79c.163.364 0 .791-.363.955-.343.153-.742.018-.924-.301l-.031-.063-1.718-3.83c-.204-.544-.707-.913-1.281-.948l-.092-.003h-8.63c-.581 0-1.104.34-1.353.902l-.037.09-1.7 3.787c-.163.364-.59.527-.954.364-.343-.154-.507-.542-.39-.89l.026-.065L4.23 2.38C4.642 1.28 5.672.54 6.835.495l.121-.003h8.63zM1.798 11.958c.375 0 .684.286.719.653l.003.07v1.651c0 .406.33.735.735.735.383 0 .698-.293.732-.668l.003-.067v-1.458c0-.398.324-.722.723-.722.375 0 .684.287.719.653l.003.07v1.457c0 1.204-.976 2.18-2.18 2.18-1.17 0-2.124-.921-2.177-2.077l-.003-.103V12.68c0-.399.324-.722.723-.722z">
                </path>
                <circle cx="4.535" cy="9.833" r="1.204"></circle>
                <path fill-rule="nonzero"
                    d="M18.556 5.593c1.3 0 2.503.693 3.153 1.82.2.345.08.786-.265.986-.345.2-.787.081-.987-.265-.373-.646-1.048-1.056-1.789-1.093l-.111-.003H3.982c-1.176 0-2.136.927-2.19 2.09l-.003.103v2.186c0 .383.294.698.668.732l.067.003h5.83c.4 0 .723.324.723.722 0 .376-.287.685-.653.72l-.07.003h-5.83c-1.17 0-2.124-.921-2.177-2.077l-.003-.103V9.231c0-1.97 1.566-3.574 3.52-3.636l.118-.002h14.574z">
                </path>
            </g>
        </g>
    </g>
</svg>