<svg xmlns="http://www.w3.org/2000/svg">
    <title id="vehicleHistoryIcon">Vehicle history icon</title>
    <g fill="none" fill-rule="evenodd">
        <g fill="#18222E" fill-rule="nonzero">
            <path
                d="M11.276 5.249c-.058-.842-1.307-1.792-3.388-2.482l-.31-.099c-.685-.21-1.452-.392-2.29-.535l-.39-.062c-.595-.09-1.223-.16-1.879-.206l-.442-.027c-.203-.014-.404.057-.553.196-.13.122-.211.287-.229.464l-.004.077v12.988c-.001.387.3.707.668.728 2.058.06 4.095.42 6.05 1.066.378.125.584.534.458.913-.125.379-.534.584-.913.459-1.82-.603-3.72-.938-5.656-.995-1.12-.062-2.002-.963-2.05-2.07l-.002-.104V2.577c-.001-.606.25-1.184.691-1.598C1.48.566 2.074.355 2.665.396c4.375.229 7.813 1.464 9.282 3.107l.085.098.042-.046C13.567 1.95 17.006.692 21.113.415l.202-.012c.605-.044 1.201.166 1.645.58.414.385.66.916.69 1.477l.004.12v12.244c0 .399-.324.722-.723.722-.375 0-.684-.286-.719-.653l-.003-.07V2.58c0-.205-.084-.4-.234-.54-.15-.14-.35-.21-.565-.195-.556.033-1.098.086-1.62.155l-.389.055c-.77.116-1.495.269-2.164.447l-.33.09c-.378.11-.737.227-1.073.35l-.283.107c-1.709.67-2.772 1.502-2.826 2.204l-.003.057c0 .937-1.365.963-1.441.078l-.005-.138z">
            </path>
            <path
                d="M12 4.587c.376 0 .684.286.72.653l.002.07v3.776c0 .399-.323.722-.722.722-.376 0-.684-.286-.72-.652l-.002-.07V5.309c0-.399.323-.722.722-.722zM4.082 4.721c1.905.214 3.778.651 5.58 1.302.376.136.57.55.435.925-.136.375-.55.57-.925.434-1.696-.613-3.459-1.024-5.251-1.225-.397-.044-.682-.402-.638-.798.042-.373.361-.648.73-.642l.069.004zM20.143 8.433c.396-.052.758.227.81.623.052.395-.227.758-.623.81-.345.045-.682.094-1.01.147-.395.064-.765-.204-.83-.598-.063-.394.205-.765.598-.828.344-.056.696-.107 1.055-.154zM4.084 8.429c1.902.218 3.774.655 5.577 1.3.375.135.57.548.436.924-.134.376-.548.571-.923.437-1.7-.609-3.462-1.02-5.255-1.226-.397-.046-.681-.404-.635-.8.043-.373.362-.647.73-.64l.07.005zM4.033 12.357c1.919.217 3.807.653 5.626 1.3.376.134.573.547.439.923-.134.376-.547.572-.923.438-1.715-.61-3.495-1.021-5.304-1.226-.397-.044-.682-.402-.637-.798.042-.374.361-.648.73-.642l.069.005zM20.205 4.728c.397-.044.754.24.8.637.044.397-.241.754-.638.799-1.81.204-3.59.615-5.307 1.226-.376.134-.79-.063-.923-.439-.134-.375.063-.789.439-.922 1.82-.648 3.71-1.084 5.63-1.3zM15.277 9.821c1.37 0 2.488 1.083 2.543 2.44l.002.104v5l2.981.662c1.747.388 2.945 1.985 2.843 3.758l-.009.121-.097 1.09c-.035.398-.386.691-.784.656-.374-.034-.656-.346-.658-.714l.003-.07.097-1.091c.097-1.064-.587-2.037-1.608-2.315l-.1-.024-3.547-.788c-.309-.069-.534-.329-.563-.638l-.003-.067v-5.58c0-.607-.492-1.1-1.1-1.1-.582 0-1.058.453-1.097 1.025l-.002.075v8.944c0 .575-.632.911-1.104.614l-.052-.036-1.435-1.076c-.305-.229-.732-.198-1.002.072-.252.251-.295.64-.114.94l.042.062.46.614c.24.319.175.772-.144 1.011-.3.225-.719.181-.967-.09l-.044-.054-.461-.615c-.66-.88-.572-2.112.206-2.89.752-.751 1.925-.859 2.799-.272l.092.066.279.21v-7.5c0-1.37 1.083-2.487 2.44-2.542l.104-.002z">
            </path>
        </g>
    </g>
</svg>