<svg xmlns="http://www.w3.org/2000/svg">
    <title id="carBuyOrSellIcon">Car buy or sell icon</title>
    <g fill="none" fill-rule="evenodd">
        <g>
            <path fill="#18222E" fill-rule="nonzero"
                d="M7.44.373C3.622.373.527 3.47.527 7.287c0 3.818 3.095 6.913 6.913 6.913s6.913-3.095 6.913-6.913S11.258.373 7.44.373zm0 1.56c2.957 0 5.353 2.397 5.353 5.354 0 2.956-2.396 5.353-5.353 5.353s-5.353-2.397-5.353-5.353c0-2.957 2.396-5.354 5.353-5.354z"
                transform="translate(10 10)"></path>
            <path fill="#18222E" fill-rule="nonzero"
                d="M8.973 3.44c.431 0 .78.35.78.78 0 .405-.309.739-.705.776L8.973 5H7.44c-.416 0-.753.337-.753.753s.337.754.753.754c1.278 0 2.313 1.035 2.313 2.313 0 1.241-.977 2.254-2.204 2.31l-.109.003H5.907c-.431 0-.78-.349-.78-.78 0-.405.309-.738.705-.776l.075-.004H7.44c.416 0 .753-.337.753-.753s-.337-.753-.753-.753c-1.278 0-2.313-1.036-2.313-2.314 0-1.24.977-2.254 2.204-2.31l.109-.003h1.533z"
                transform="translate(10 10)"></path>
            <path stroke="#18222E" stroke-linecap="round" stroke-linejoin="round" stroke-width="1.56"
                d="M7.44 4.22L7.44 3.453M7.44 11.376L7.44 10.609" transform="translate(10 10)"></path>
        </g>
        <g fill="#18222E" transform="translate(0 1)">
            <path fill-rule="nonzero"
                d="M15.586.492c1.173 0 2.227.702 2.666 1.737l.043.108 1.7 3.79c.163.364 0 .791-.363.955-.343.153-.742.018-.924-.301l-.031-.063-1.718-3.83c-.204-.544-.707-.913-1.281-.948l-.092-.003h-8.63c-.581 0-1.104.34-1.353.902l-.037.09-1.7 3.787c-.163.364-.59.527-.954.364-.343-.154-.507-.542-.39-.89l.026-.065L4.23 2.38C4.642 1.28 5.672.54 6.835.495l.121-.003h8.63zM1.798 11.958c.375 0 .684.286.719.653l.003.07v1.651c0 .406.33.735.735.735.383 0 .698-.293.732-.668l.003-.067v-1.458c0-.398.324-.722.723-.722.375 0 .684.287.719.653l.003.07v1.457c0 1.204-.976 2.18-2.18 2.18-1.17 0-2.124-.921-2.177-2.077l-.003-.103V12.68c0-.399.324-.722.723-.722z">
            </path>
            <circle cx="4.535" cy="9.833" r="1.204"></circle>
            <path fill-rule="nonzero"
                d="M18.556 5.593c1.3 0 2.503.693 3.153 1.82.2.345.08.786-.265.986-.345.2-.787.081-.987-.265-.373-.646-1.048-1.056-1.789-1.093l-.111-.003H3.982c-1.176 0-2.136.927-2.19 2.09l-.003.103v2.186c0 .383.294.698.668.732l.067.003h5.83c.4 0 .723.324.723.722 0 .376-.287.685-.653.72l-.07.003h-5.83c-1.17 0-2.124-.921-2.177-2.077l-.003-.103V9.231c0-1.97 1.566-3.574 3.52-3.636l.118-.002h14.574z">
            </path>
        </g>
    </g>
</svg>