<svg xmlns="http://www.w3.org/2000/svg">
    <title id="testDriveIcon">Test drive icon</title>
    <g fill="none" fill-rule="evenodd">
        <g transform="translate(1 1)">
            <circle cx="11" cy="11" r="10.855" stroke="#18222E" stroke-linecap="round" stroke-linejoin="round"
                stroke-width="1.435"></circle>
            <path fill="#18222E" fill-rule="nonzero"
                d="M11 2.322c-4.793 0-8.678 3.885-8.678 8.678 0 4.793 3.885 8.678 8.678 8.678 4.793 0 8.678-3.885 8.678-8.678 0-4.793-3.885-8.678-8.678-8.678zm0 1.435c4 0 7.243 3.243 7.243 7.243S15 18.243 11 18.243 3.757 15 3.757 11 7 3.757 11 3.757z">
            </path>
            <path fill="#18222E" fill-rule="nonzero"
                d="M11.008 7.388c2.744.03 5.463.514 8.048 1.435.374.133.569.543.436.916-.133.373-.544.568-.917.435-2.435-.867-4.998-1.324-7.567-1.351-2.585.027-5.148.484-7.583 1.351-.373.133-.784-.061-.917-.435-.133-.373.062-.783.436-.916 2.584-.92 5.304-1.406 8.064-1.435zM3.037 11.717c4.252-.774 7.135 2.057 6.542 7.039-.047.393-.404.674-.797.627-.394-.046-.675-.403-.628-.797.48-4.038-1.574-6.056-4.86-5.457-.39.071-.763-.187-.834-.577-.07-.39.188-.764.577-.835zM12.421 18.756c-.593-4.982 2.29-7.813 6.542-7.039.39.071.648.445.577.835-.071.39-.445.648-.834.577-3.286-.599-5.34 1.419-4.86 5.457.047.394-.234.75-.628.797-.393.047-.75-.234-.797-.627z">
            </path>
            <circle cx="11" cy="11" r="1" fill="#18222E"></circle>
        </g>
    </g>
</svg>