<svg xmlns="http://www.w3.org/2000/svg">
    <title id="friendlyIcon">Friendly icon</title>
    <g fill="none" fill-rule="evenodd">
        <g transform="translate(1)">
            <g fill="#18222E" fill-rule="nonzero">
                <path
                    d="M10.842 16.349c4.188 0 8.001 2.414 9.792 6.2.17.358.017.785-.342.955-.358.17-.785.016-.955-.342-1.554-3.284-4.862-5.379-8.495-5.379-3.633 0-6.941 2.095-8.495 5.38-.17.357-.597.51-.955.34-.358-.169-.511-.596-.342-.955 1.791-3.785 5.604-6.2 9.792-6.2zM10.128 3.094l-.003.077c0 2.401-1.947 4.348-4.349 4.348-.396 0-.717.322-.717.718 0 3.554 2.453 7.256 5.726 7.518 3.298.263 5.84-3.756 5.84-7.518 0-.396-.32-.718-.717-.718l-.126-.001c-2.302-.066-4.155-1.92-4.22-4.221l-.003-.126c0-.93-1.356-.956-1.431-.077zm.714 2.868l.005.01c.855 1.541 2.394 2.651 4.206 2.92l.105.014-.003.034c-.28 2.812-2.18 5.55-4.256 5.384l-.118-.011c-2.121-.252-3.897-2.675-4.23-5.224l-.022-.184.102-.014c1.756-.26 3.254-1.31 4.124-2.776l.087-.153z">
                </path>
                <path
                    d="M10.842.427c4.74 0 8.592 3.8 8.677 8.519l.001.16v2.002c0 .437.079.87.232 1.277l.061.152 1.328 3.096c.467 1.086-.023 2.346-1.11 2.834-1.1.478-2.255.821-3.438 1.02-.391.067-.761-.197-.827-.587-.066-.391.197-.761.588-.827 1.069-.18 2.111-.49 3.097-.919.342-.153.509-.539.396-.89l-.025-.065-1.328-3.097c-.245-.573-.382-1.185-.405-1.807l-.004-.187V9.105c0-4-3.243-7.243-7.243-7.243-3.95 0-7.16 3.161-7.241 7.092l-.002.151v2.003c0 .623-.115 1.24-.339 1.82l-.07.174L1.862 16.2c-.158.366.007.791.363.95.994.433 2.037.743 3.105.923.39.066.654.436.588.827-.066.39-.436.654-.826.588-1.184-.2-2.339-.543-3.447-1.025-1.046-.47-1.538-1.669-1.142-2.73l.04-.1 1.328-3.096c.172-.402.27-.83.29-1.265l.003-.164V9.105c0-4.792 3.885-8.678 8.678-8.678z">
                </path>
            </g>
            <path fill="#18222E" fill-rule="nonzero"
                d="M12.006 11.974c.303-.175.69-.071.865.232.176.303.072.69-.232.866-.987.57-2.204.57-3.191 0-.304-.175-.408-.563-.233-.866.176-.303.563-.407.866-.232.596.344 1.33.344 1.925 0z">
            </path>
            <circle cx="8.891" cy="9.37" r="1" fill="#D8D8D8" stroke="#979797" stroke-width=".917"></circle>
            <circle cx="13.196" cy="9.37" r="1" fill="#D8D8D8" stroke="#979797" stroke-width=".917"></circle>
        </g>
    </g>
</svg>