<svg xmlns="http://www.w3.org/2000/svg">
    <title id="paperworkIcon">Paperwork icon</title>
    <g fill="none" fill-rule="evenodd" stroke-linecap="round" stroke-linejoin="round">
        <g stroke="#18222E" stroke-width="1.5" transform="translate(1 1)">
            <rect width="13.026" height="15.921" x="8.829" y="5.945" rx=".965"></rect>
            <path
                d="M8.829 18.971H5.934c-.8 0-1.447-.648-1.447-1.447V4.497c0-.799.648-1.447 1.447-1.447h10.132c.8 0 1.447.648 1.447 1.447v1.448">
            </path>
            <path
                d="M4.487 16.076H1.592c-.8 0-1.447-.648-1.447-1.447V1.603c0-.8.648-1.448 1.447-1.448h10.132c.799 0 1.447.648 1.447 1.448V3.05M16.066 10.287L18.961 10.287M11.724 9.563L12.447 10.287 13.895 8.84M16.066 14.629L18.961 14.629M11.724 13.905L12.447 14.629 13.895 13.182M16.066 18.971L18.961 18.971M11.724 18.247L12.447 18.971 13.895 17.524">
            </path>
        </g>
    </g>
</svg>