<svg xmlns="http://www.w3.org/2000/svg">
    <title id="mobileShoppingIcon">Mobile shopping icon</title>
    <g fill="none" fill-rule="evenodd">
        <g fill="#18222E" fill-rule="nonzero">
            <path
                d="M11.688.616c.4 0 .723.323.723.722 0 .376-.287.685-.653.72l-.07.003H3.801c-1.1 0-1.997.865-2.05 1.952l-.002.1v15.773c0 1.1.866 1.998 1.953 2.05l.099.003h6.635c1.1 0 1.998-.866 2.05-1.953l.003-.1v-4.84c0-.399.324-.722.723-.722.375 0 .684.286.719.653l.003.07v4.84c0 1.892-1.504 3.433-3.382 3.495l-.116.002H3.801c-1.893 0-3.434-1.504-3.495-3.382l-.001-.116V4.112C.305 2.22 1.808.68 3.685.618l.116-.002h7.887z"
                transform="translate(2)"></path>
            <path
                d="M13.212 17.37c.399 0 .722.323.722.722 0 .376-.287.684-.653.72l-.07.003H1.028c-.4 0-.722-.324-.722-.723 0-.375.286-.684.652-.719l.07-.003h12.185zM17.85 1.13c.115-.381.518-.598.9-.483.36.107.573.47.501.831l-.017.068-2.284 7.615c-.085.284-.334.485-.625.512l-.067.003h-6.093c-.288 0-.547-.171-.661-.432l-.024-.062-1.523-4.569c-.15-.447.163-.909.622-.948l.063-.003h8.449l.76-2.531zm-1.193 3.977H9.644l1.042 3.124h5.033l.938-3.124zM10.546 10.516l.076.003c.574.038 1.027.516 1.027 1.1 0 .61-.494 1.103-1.103 1.103-.61 0-1.103-.494-1.103-1.103 0-.584.454-1.062 1.028-1.1l.075-.003zM15.877 10.516l.075.003c.574.038 1.028.516 1.028 1.1 0 .61-.494 1.103-1.103 1.103-.61 0-1.103-.494-1.103-1.103 0-.584.453-1.062 1.027-1.1l.076-.003z"
                transform="translate(2)"></path>
        </g>
    </g>
</svg>