<svg id="Layer_1" data-name="Layer 1" xmlns="http://www.w3.org/2000/svg" viewBox="0 0 95.93 84.86">
    <path
        d="M459.3,481.78c-1.89-1.49-5.06.74-5.14-2.54-.07-3,1.46-6.53,4.53-6.18,8.26.93,11.58-4.1,14.92-10.1,2.11-3.78,6.08-4.84,10.33-4.85,10.47,0,21,.21,31.42-.28,7.1-.33,12,2.27,14.77,8.59,1.83,4.15,4.41,6.24,9.1,5.45a6.81,6.81,0,0,1,4.32.77,5.91,5.91,0,0,1,3.44,6.1c-.22,2.65-2.88,1.52-4.67,2.53a12.85,12.85,0,0,1,1.73,10.58c-.59,2.25.37,4,1.5,6,6.31,11,6.14,22-1.19,32.29-7.06,9.94-17,14.1-29.12,12-12.77-2.23-20.44-10.19-23.89-22.48-.14-.48-.17-1-.32-1.46-.71-2.32,1.15-6.27-1.13-6.82-4.08-1-8.6-.53-12.88-.12-1.95.18-1.13,2.49-1.07,3.84.17,4.24-2.39,4.89-5.81,4.87s-6.68.22-6.53-4.53c.07-2.44-.19-4.47-2.62-5.86-1.31-.75-1.71-2.4-1.92-3.92-.67-4.94-1.3-9.88-2-14.81A11.65,11.65,0,0,1,459.3,481.78Zm34.63,31.53c.09,14.47,12.13,26.45,26.45,26.32a26.77,26.77,0,0,0,26.41-26.41,26.43,26.43,0,1,0-52.86.09Zm46.88-21.86c1.8-6,0-9.45-4.92-9.44q-34.9.08-69.83.43c-4.76,0-6.53,2.14-6.09,7s1.44,9.87,1.84,14.82c.27,3.29,1.93,4.27,4.87,4.17,5.48-.17,11-.7,16.43-.28s9.26-.56,10.05-6.77a8.4,8.4,0,0,1,1.82-3.51c1.44-1.94.54-4.23,1.11-6.24.92-3.2,3,.66,5.2-.87C515.48,480.75,526.06,481.1,540.81,491.45Zm-6.91-12.7c-2.52-4.5-4.8-8.69-7.2-12.81-2.08-3.57-5.05-5.26-9.42-5.15-11.27.29-22.56.22-33.85.24-2.42,0-4.77.31-6.36,2.2-4,4.8-6.63,10.4-9.35,15.93,12.85,0,25.11-.08,37.35.06,2.71,0,3.9-1,5.21-3.32,3.49-6.27,12.16-6.64,15.42-.43C527.63,479.12,529.82,479.54,533.9,478.75Zm-22,.35c3.52,0,6.51,0,9.49,0,.89,0,2.14.47,2.5-.88.29-1.13-.64-1.81-1.34-2.49C519.15,472.48,514.87,473.6,511.89,479.1Zm-39,34.64c.95-3.17-1.48-2.53-3.44-2.72-2.61-.25-3.33.82-3.34,3.35,0,2.77,1.57,2.64,3.46,2.72C471.81,517.17,473.57,516.94,472.88,513.74Zm-6.63-38.9c-3.68.72-7.28-.93-9.69,4.42C460.37,477.57,464.29,480.46,466.25,474.84Zm68.89-.24c1.24,4.89,4.74,2.92,7.34,3.24.94.12,1.72-.51,1.12-1.46-1.46-2.33-4-1.83-6.2-2A14.49,14.49,0,0,0,535.14,474.6Z"
        transform="translate(-454.16 -457.8)" style="fill:#424f66" />
    <path
        d="M493.93,513.31a26.43,26.43,0,1,1,52.86-.09,26.77,26.77,0,0,1-26.41,26.41C506.06,539.76,494,527.78,493.93,513.31Zm46.94-3.44c0-10.27-8.13-16-17.46-12.16a6.8,6.8,0,0,1-6-.16c-7.84-3.34-14.68.14-17,8.34-2.94,10.49,8.72,26.56,19.68,27.1a6.67,6.67,0,0,0,1.48-.11C531.1,531.09,540.89,519.39,540.87,509.87Z"
        transform="translate(-454.16 -457.8)" style="fill:#fcfcfc" />
    <path
        d="M540.81,491.45c-14.75-10.35-25.33-10.7-39.52-.65-2.18,1.53-4.28-2.33-5.2.87-.57,2,.33,4.3-1.11,6.24a8.4,8.4,0,0,0-1.82,3.51c-.79,6.21-4.55,7.19-10.05,6.77s-10.95.11-16.43.28c-2.94.1-4.6-.88-4.87-4.17-.4-4.95-1.4-9.86-1.84-14.82s1.33-7,6.09-7q34.92-.35,69.83-.43C540.84,482,542.61,485.47,540.81,491.45Zm-65.62,4.1c-.05-3.39-1.79-5.43-5.09-5.57-3.07-.13-5,1.62-5.23,4.8-.25,3.5,1.69,5.35,5,5.5C472.94,500.42,474.77,498.67,475.19,495.55ZM492,493.29c-.12-1,.41-2.66-1.3-2.57s-1.55,1.73-1.57,3,.25,2.7,1.51,2.64C492.51,496.3,491.9,494.49,492,493.29Z"
        transform="translate(-454.16 -457.8)" style="fill:#fcfcfc" />
    <path
        d="M533.9,478.75c-4.08.79-6.27.37-8.2-3.28-3.26-6.21-11.93-5.84-15.42.43-1.31,2.35-2.5,3.35-5.21,3.32-12.24-.14-24.5-.06-37.35-.06,2.72-5.53,5.32-11.13,9.35-15.93,1.59-1.89,3.94-2.2,6.36-2.2,11.29,0,22.58.05,33.85-.24,4.37-.11,7.34,1.58,9.42,5.15C529.1,470.06,531.38,474.25,533.9,478.75Z"
        transform="translate(-454.16 -457.8)" style="fill:#fcfcfc" />
    <path
        d="M511.89,479.1c3-5.5,7.26-6.62,10.65-3.39.7.68,1.63,1.36,1.34,2.49-.36,1.35-1.61.86-2.5.88C518.4,479.14,515.41,479.1,511.89,479.1Z"
        transform="translate(-454.16 -457.8)" style="fill:#fcfcfc" />
    <path
        d="M472.88,513.74c.69,3.2-1.07,3.43-3.32,3.35-1.89-.08-3.48,0-3.46-2.72,0-2.53.73-3.6,3.34-3.35C471.4,511.21,473.83,510.57,472.88,513.74Z"
        transform="translate(-454.16 -457.8)" style="fill:#fcfcfc" />
    <path d="M466.25,474.84c-2,5.62-5.88,2.73-9.69,4.42C459,473.91,462.57,475.56,466.25,474.84Z"
        transform="translate(-454.16 -457.8)" style="fill:#fcfcfc" />
    <path
        d="M535.14,474.6a14.49,14.49,0,0,1,2.26-.21c2.23.16,4.74-.34,6.2,2,.6.95-.18,1.58-1.12,1.46C539.88,477.52,536.38,479.49,535.14,474.6Z"
        transform="translate(-454.16 -457.8)" style="fill:#fcfcfc" />
    <path
        d="M540.87,509.87c0,9.52-9.77,21.22-19.26,23a6.67,6.67,0,0,1-1.48.11c-11-.54-22.62-16.61-19.68-27.1,2.31-8.2,9.15-11.68,17-8.34a6.8,6.8,0,0,0,6,.16C532.74,493.86,540.84,499.6,540.87,509.87ZM504,509.51c-.25,7.42,8.5,18.13,15.76,19.24a3.47,3.47,0,0,0,1.92-.22c7.11-3.44,13.11-8,14.94-16.22.88-4,0-7.79-3.31-10.33-3.11-2.37-6.76-1.86-9.82.15-2.62,1.73-4.49.73-6.82-.4C509.94,498.43,504.28,502,504,509.51Z"
        transform="translate(-454.16 -457.8)" style="fill:rgb(54, 67, 255)" />
    <path
        d="M475.19,495.55c-.42,3.12-2.25,4.87-5.34,4.73-3.29-.15-5.23-2-5-5.5.23-3.18,2.16-4.93,5.23-4.8C473.4,490.12,475.14,492.16,475.19,495.55Zm-6-2.68c-1,.09-1.73,1.06-1.54,2.6a2.29,2.29,0,0,0,2.29,2.18,2.34,2.34,0,0,0,2.45-2.54C472.38,493.58,471.41,492.73,469.17,492.87Z"
        transform="translate(-454.16 -457.8)" style="fill:#424f66" />
    <path d="M492,493.29c-.13,1.2.48,3-1.36,3.09-1.26.06-1.52-1.45-1.51-2.64s-.2-2.94,1.57-3S491.91,492.25,492,493.29Z"
        transform="translate(-454.16 -457.8)" style="fill:#424f66" />
    <path
        d="M504,509.51c.26-7.53,5.92-11.08,12.67-7.78,2.33,1.13,4.2,2.13,6.82.4,3.06-2,6.71-2.52,9.82-.15,3.33,2.54,4.19,6.36,3.31,10.33-1.83,8.23-7.83,12.78-14.94,16.22a3.47,3.47,0,0,1-1.92.22C512.52,527.64,503.77,516.93,504,509.51Z"
        transform="translate(-454.16 -457.8)" style="fill:#fcfcfc" />
    <path
        d="M469.17,492.87c2.24-.14,3.21.71,3.2,2.24a2.34,2.34,0,0,1-2.45,2.54,2.29,2.29,0,0,1-2.29-2.18C467.44,493.93,468.15,493,469.17,492.87Z"
        transform="translate(-454.16 -457.8)" style="fill:#fcfcfc" /></svg>